<svg width="32" height="32" viewBox="0 0 32 32" fill="none" xmlns="http://www.w3.org/2000/svg">
<mask id="mask0_105177_1204" style="mask-type:alpha" maskUnits="userSpaceOnUse" x="0" y="0" width="32" height="32">
<rect width="32" height="32" fill="#D9D9D9"/>
</mask>
<g mask="url(#mask0_105177_1204)">
<path d="M6.66732 26.6667V14.4667L2.93398 17.3333L1.33398 15.2L16.0007 4L21.334 8.06667V5.33333H25.334V11.1333L30.6673 15.2L29.0673 17.3333L25.334 14.4667V26.6667H17.334V18.6667H14.6673V26.6667H6.66732ZM9.33398 24H12.0007V16H20.0007V24H22.6673V12.4333L16.0007 7.36667L9.33398 12.4333V24ZM13.334 13.3667H18.6673C18.6673 12.6556 18.4007 12.0722 17.8673 11.6167C17.334 11.1611 16.7118 10.9333 16.0007 10.9333C15.2895 10.9333 14.6673 11.1611 14.134 11.6167C13.6007 12.0722 13.334 12.6556 13.334 13.3667Z" fill="#1C1B1F"/>
</g>
</svg>
